<svg xmlns="http://www.w3.org/2000/svg" width="600" height="600" viewBox="0 0 600 600">
  <g id="Gruppe_1" data-name="Gruppe 1" transform="translate(-855.351 2519.021)">
    <rect id="Rechteck_1" data-name="Rechteck 1" width="600" height="600" transform="translate(855.351 -2519.021)" fill="#f8f2eb"/>
    <path id="Pfad_1" data-name="Pfad 1" d="M157.218-455.874a33.4,33.4,0,0,0-8.8,1.341,6.028,6.028,0,0,0-3.772,3.856q-1.006,2.85-1.006,9.22v83.15q0,6.37,1.006,9.22a6.028,6.028,0,0,0,3.772,3.856,33.393,33.393,0,0,0,8.8,1.341v3.353q-7.712-.5-21.29-.5-14.417,0-21.458.5v-3.353a33.394,33.394,0,0,0,8.8-1.341,6.028,6.028,0,0,0,3.772-3.856q1.006-2.85,1.006-9.22v-89.856L87.647-339.7H84.964L42.719-448.5v88.515a32.174,32.174,0,0,0,1.09,9.723,7.571,7.571,0,0,0,4.275,4.61q3.185,1.425,9.891,1.76v3.353q-6.035-.5-17.1-.5-10.058,0-15.591.5v-3.353q5.867-.335,8.717-1.76a7.43,7.43,0,0,0,3.856-4.694,34.851,34.851,0,0,0,1.006-9.639v-81.474q0-6.37-1.006-9.22a6.028,6.028,0,0,0-3.772-3.856,33.4,33.4,0,0,0-8.8-1.341v-3.353q5.532.5,15.591.5,8.717,0,14.25-.5l36.881,97.064,36.043-96.562h7.879q13.579,0,21.29-.5Zm86.168,97.232q0,7.712,2.85,11.232t9.891,3.52v3.52q-5.2-.5-10.394-.5-10.561,0-17.435,2.347v-19.782q-4.023,10.394-11.4,15.255A28.66,28.66,0,0,1,200.8-338.19q-11.4,0-17.435-6.37a19.306,19.306,0,0,1-4.275-8.55,58.677,58.677,0,0,1-1.257-13.411V-408.6q0-7.711-2.85-11.232t-9.891-3.52v-3.52q5.2.5,10.394.5,10.561,0,17.435-2.347v65.883a56.834,56.834,0,0,0,.754,10.31,11.34,11.34,0,0,0,3.52,6.454q2.766,2.515,8.466,2.515a18.439,18.439,0,0,0,11.567-4.023,26.6,26.6,0,0,0,8.131-10.981A39.09,39.09,0,0,0,228.3-373.9v-34.7q0-7.711-2.85-11.232t-9.891-3.52v-3.52q5.2.5,10.394.5,10.561,0,17.435-2.347Zm47.945,2.515q0,6.873,2.85,9.472t9.891,2.6v3.521q-15.423-.671-20.285-.671t-20.285.671v-3.521q7.041,0,9.891-2.6t2.85-9.472v-95.723q0-7.712-2.85-11.232T263.5-466.6v-3.521q5.2.5,10.394.5,10.561,0,17.435-2.347Zm40.4-112.655a10.311,10.311,0,0,1,7.544,3.185,10.311,10.311,0,0,1,3.185,7.544,10.311,10.311,0,0,1-3.185,7.544,10.311,10.311,0,0,1-7.544,3.185,10.311,10.311,0,0,1-7.544-3.185A10.311,10.311,0,0,1,321-458.054a10.311,10.311,0,0,1,3.185-7.544A10.311,10.311,0,0,1,331.733-468.783Zm8.717,112.655q0,6.873,2.85,9.472t9.891,2.6v3.521q-15.423-.671-20.285-.671t-20.285.671v-3.521q7.041,0,9.891-2.6t2.85-9.472V-408.6q0-7.711-2.85-11.232t-9.891-3.52v-3.52q5.365.5,10.394.5,10.561,0,17.435-2.347Zm71.08-73.092q14.25,0,23.051,11.735t8.8,33.864q0,14.585-5.029,24.811a36.294,36.294,0,0,1-13.5,15.423,35.336,35.336,0,0,1-18.86,5.2,29.763,29.763,0,0,1-11.986-2.515,30.078,30.078,0,0,1-10.142-7.209l-11.9,10.059-2.85-1.173a36.209,36.209,0,0,0,1.173-9.723V-451.683q0-7.712-2.85-11.232t-9.891-3.52v-3.521q5.364.5,10.394.5,10.561,0,17.435-2.347v60.519a29.682,29.682,0,0,1,10.645-13.244A27.112,27.112,0,0,1,411.53-429.219Zm-6.873,87.174q11.232,0,16.848-10.142t5.616-31.433q0-20.452-5.029-30.511T406.669-424.19a18.587,18.587,0,0,0-12.908,5.448q-5.867,5.448-8.382,15.339v53.142a26.106,26.106,0,0,0,8.885,6.119A26.774,26.774,0,0,0,404.657-342.046Z" transform="translate(920.73 -1813.99)"/>
  </g>
</svg>
